<?xml version="1.0" encoding="utf-8"?>
<!-- Generator: Adobe Illustrator 23.0.1, SVG Export Plug-In . SVG Version: 6.00 Build 0)  -->
<svg version="1.1" id="Capa_1" xmlns="http://www.w3.org/2000/svg" xmlns:xlink="http://www.w3.org/1999/xlink" x="0px" y="0px"
	 viewBox="0 0 750 500" style="enable-background:new 0 0 750 500;" xml:space="preserve">
<style type="text/css">
	.st0{fill:url(#SVGID_1_);}
	.st1{fill:url(#SVGID_2_);}
	.st2{opacity:0.8;fill:url(#SVGID_3_);enable-background:new    ;}
	.st3{opacity:0.8;fill:url(#SVGID_4_);enable-background:new    ;}
	.st4{opacity:0.8;fill:url(#SVGID_5_);enable-background:new    ;}
	.st5{opacity:0.8;fill:url(#SVGID_6_);enable-background:new    ;}
	.st6{opacity:0.8;fill:url(#SVGID_7_);enable-background:new    ;}
	.st7{opacity:0.8;fill:url(#SVGID_8_);enable-background:new    ;}
	.st8{fill:#CBDFEF;}
	.st9{opacity:0.8;fill:url(#SVGID_9_);enable-background:new    ;}
	.st10{fill:#FFFFFF;}
	.st11{fill:url(#SVGID_10_);}
	.st12{fill:#809297;}
	.st13{fill:url(#XMLID_3_);}
	.st14{fill:#8A9EA2;}
	.st15{fill:url(#XMLID_4_);}
	.st16{fill:#92A7AC;}
	.st17{fill:url(#XMLID_5_);}
	.st18{opacity:0.1;fill:#FFFFFF;enable-background:new    ;}
	.st19{fill:#FDC870;}
	.st20{fill:url(#SVGID_11_);}
	.st21{fill:url(#XMLID_6_);}
	.st22{fill:url(#SVGID_12_);}
	.st23{fill:url(#SVGID_13_);}
	.st24{fill:url(#SVGID_14_);}
	.st25{opacity:0.7;fill:url(#SVGID_15_);enable-background:new    ;}
	.st26{opacity:0.7;fill:url(#SVGID_16_);enable-background:new    ;}
	.st27{fill:url(#SVGID_17_);}
	.st28{opacity:0.8;fill:url(#SVGID_18_);enable-background:new    ;}
	.st29{fill:url(#SVGID_19_);}
	.st30{fill:#FFB300;}
	.st31{fill:#FFA000;}
	.st32{fill:#FFCA28;}
	.st33{opacity:0.7;fill:url(#SVGID_20_);enable-background:new    ;}
	.st34{opacity:0.7;fill:url(#SVGID_21_);enable-background:new    ;}
	.st35{fill:url(#SVGID_22_);}
	.st36{opacity:0.8;fill:url(#SVGID_23_);enable-background:new    ;}
	.st37{fill:url(#SVGID_24_);}
	.st38{fill:#D32F2F;}
	.st39{opacity:0.8;fill:url(#SVGID_25_);enable-background:new    ;}
	.st40{fill:#EF5350;}
	.st41{fill:none;stroke:#FFFFFF;stroke-width:1.0404;stroke-miterlimit:10;}
	.st42{opacity:0.7;fill:url(#SVGID_26_);enable-background:new    ;}
	.st43{opacity:0.7;fill:url(#SVGID_27_);enable-background:new    ;}
	.st44{fill:url(#SVGID_28_);}
	.st45{fill:#25284C;}
	.st46{fill:#111638;}
	.st47{fill:#F5F5F5;}
	.st48{fill:#7B92B9;}
	.st49{fill:#6A7EA2;}
	.st50{fill:none;stroke:#FFFFFF;stroke-width:0.7521;stroke-miterlimit:10;}
	.st51{opacity:0.8;fill:url(#SVGID_29_);enable-background:new    ;}
	.st52{opacity:0.8;fill:url(#SVGID_30_);enable-background:new    ;}
	.st53{opacity:0.8;fill:url(#SVGID_31_);enable-background:new    ;}
	.st54{fill:url(#SVGID_32_);}
	.st55{fill:url(#SVGID_33_);}
	.st56{opacity:0.7;fill:url(#SVGID_34_);enable-background:new    ;}
	.st57{fill:url(#SVGID_35_);}
	.st58{fill:none;stroke:#FFFFFF;stroke-width:1.0404;stroke-linecap:round;stroke-linejoin:round;stroke-miterlimit:10;}
	.st59{fill:#FFEE58;}
	.st60{fill:none;stroke:#FFFFFF;stroke-width:0.5202;stroke-linecap:round;stroke-linejoin:round;stroke-miterlimit:10;}
	.st61{fill:url(#SVGID_36_);}
</style>
<g id="Background">
</g>
<g id="Object">
	<g>
		
			<linearGradient id="SVGID_1_" gradientUnits="userSpaceOnUse" x1="387.6425" y1="70.5232" x2="387.6425" y2="380.0742" gradientTransform="matrix(1 0 0 -1 0 500)">
			<stop  offset="1.860120e-03" style="stop-color:#AC24B9"/>
			<stop  offset="1" style="stop-color:#2E2142"/>
		</linearGradient>
		<path class="st0" d="M555.7,353.3c-0.5,2.8-1.1,5.6-1.7,8.4c-0.5,2.1-1,4.2-1.6,6.3c-3.2,11.6-7.8,23.2-14.1,33.4
			c-6.5,10.5-14.8,19.6-25.3,25.9c-5.7,3.4-11.8,5.9-18.1,7.7H279.2c-20.9-11.1-39.2-31-35.2-54.3c3.5-20.3,6.7-40.6-0.4-59.3
			c-5.2-13.6-15.4-24.8-21.1-38.2c-14.2-33.2,3.7-63.3,30.2-81.8c1-0.7,1.9-1.3,2.9-2c0.2-0.1,0.5-0.3,0.7-0.5
			c1.1-0.7,2.1-1.4,3.2-2.1c2.3-1.6,4.5-3.3,6.6-5l0,0c1.6-1.3,3.2-2.7,4.8-4.1c0.4-0.3,0.8-0.6,1.1-1c2.2-1.9,4.3-3.9,6.4-6
			c1.1-1.1,2.2-2.2,3.3-3.2c8.5-8.5,16.7-17.4,25.6-25.2c8.5-7.4,17.8-13.7,28.7-17.7c6.8-2.5,13.8-4.2,20.9-5.2
			c28-3.9,57,3.5,79.7,20.9c1.1,0.9,2.2,1.7,3.3,2.6c11.7,9.6,22.5,21.8,27.3,35.9c6,17.8,14.9,34.9,31,45.5
			c13.3,8.7,25.9,14.5,36.6,27.1c3.8,4.6,7.1,9.4,9.9,14.4c2.3,4.1,4.3,8.3,5.9,12.6c2.2,5.8,3.9,11.7,5,17.7
			C558.6,321.7,558.4,337.7,555.7,353.3z"/>
		
			<linearGradient id="SVGID_2_" gradientUnits="userSpaceOnUse" x1="234.6673" y1="73.5846" x2="217.7738" y2="180.0141" gradientTransform="matrix(1 0 0 -1 0 500)">
			<stop  offset="1.860120e-03" style="stop-color:#AC24B9"/>
			<stop  offset="1" style="stop-color:#2E2142"/>
		</linearGradient>
		<path class="st1" d="M220.1,389.4c-0.3,5.9,0,12.1,3,17.2c2.5,4.3,8.3,7.6,12.3,4.7c3-2.2,3.3-6.7,2.2-10.3c-1-3.6-3-7-3.2-10.8
			c-0.4-5.9,6.5-21-3.9-21.7C221,367.8,220.4,383.5,220.1,389.4z"/>
		<g>
			
				<linearGradient id="SVGID_3_" gradientUnits="userSpaceOnUse" x1="298.3555" y1="71.3433" x2="301.5776" y2="115.5747" gradientTransform="matrix(1 0 0 -1 0 500)">
				<stop  offset="0" style="stop-color:#FFFFFF;stop-opacity:0"/>
				<stop  offset="1" style="stop-color:#662D8D"/>
			</linearGradient>
			<ellipse class="st2" cx="299.7" cy="410.2" rx="20.3" ry="8"/>
			
				<linearGradient id="SVGID_4_" gradientUnits="userSpaceOnUse" x1="402.0589" y1="70.2907" x2="405.281" y2="114.5218" gradientTransform="matrix(1 0 0 -1 0 500)">
				<stop  offset="0" style="stop-color:#FFFFFF;stop-opacity:0"/>
				<stop  offset="1" style="stop-color:#662D8D"/>
			</linearGradient>
			<ellipse class="st3" cx="403.4" cy="411.3" rx="20.3" ry="8"/>
			
				<linearGradient id="SVGID_5_" gradientUnits="userSpaceOnUse" x1="410.1316" y1="118.171" x2="266.0133" y2="119.9285" gradientTransform="matrix(1 0 0 -1 0 500)">
				<stop  offset="0" style="stop-color:#FFFFFF;stop-opacity:0"/>
				<stop  offset="1" style="stop-color:#662D8D"/>
			</linearGradient>
			<polygon class="st4" points="286.2,375 304.6,375 345.4,394 340.1,406.1 359.2,406.1 400.8,380.3 349.9,362.5 319.6,355.6 			"/>
			
				<linearGradient id="SVGID_6_" gradientUnits="userSpaceOnUse" x1="368.3496" y1="262.574" x2="290.4323" y2="175.2833" gradientTransform="matrix(1 0 0 -1 0 500)">
				<stop  offset="0" style="stop-color:#FFFFFF;stop-opacity:0"/>
				<stop  offset="1" style="stop-color:#662D8D"/>
			</linearGradient>
			<rect x="289.9" y="235.8" class="st5" width="100.8" height="66.1"/>
			
				<linearGradient id="SVGID_7_" gradientUnits="userSpaceOnUse" x1="607.0648" y1="131.55" x2="441.5316" y2="131.55" gradientTransform="matrix(1 0 0 -1 0 500)">
				<stop  offset="0" style="stop-color:#FFFFFF;stop-opacity:0"/>
				<stop  offset="1" style="stop-color:#662D8D"/>
			</linearGradient>
			<path class="st6" d="M555.7,335.5v17.9c-0.5,2.8-1.1,5.6-1.7,8.4c-0.5,2.1-1,4.2-1.6,6.3c-3.2,11.6-7.8,23.2-14.1,33.4h-52.7
				v-66.1h70.1V335.5z"/>
			
				<linearGradient id="SVGID_8_" gradientUnits="userSpaceOnUse" x1="582.8495" y1="181.1" x2="406.4465" y2="181.1" gradientTransform="matrix(1 0 0 -1 0 500)">
				<stop  offset="0" style="stop-color:#FFFFFF;stop-opacity:0"/>
				<stop  offset="1" style="stop-color:#662D8D"/>
			</linearGradient>
			<path class="st7" d="M555.7,306.4v47c-0.5,2.8-1.1,5.6-1.7,8.4H407V276h137.7c2.3,4.1,4.3,8.3,5.9,12.6
				C552.9,294.4,554.5,300.3,555.7,306.4z"/>
			<g>
				<path class="st8" d="M440,340.9v-47.2H334.4v47.2l0,0c0,7.8,5.2,15.6,15.5,21.5c20.6,11.9,54,11.9,74.6,0
					C434.8,356.5,440,348.7,440,340.9z"/>
				
					<linearGradient id="SVGID_9_" gradientUnits="userSpaceOnUse" x1="379.3335" y1="167.4875" x2="458.6525" y2="167.4875" gradientTransform="matrix(1 0 0 -1 0 500)">
					<stop  offset="0" style="stop-color:#FFFFFF;stop-opacity:0"/>
					<stop  offset="1" style="stop-color:#662D8D"/>
				</linearGradient>
				<path class="st9" d="M440,340.9v-47.2H334.4v47.2l0,0c0,7.8,5.2,15.6,15.5,21.5c20.6,11.9,54,11.9,74.6,0
					C434.8,356.5,440,348.7,440,340.9z"/>
				<ellipse class="st10" cx="387.2" cy="293.7" rx="52.8" ry="30.5"/>
				<g>
					
						<linearGradient id="SVGID_10_" gradientUnits="userSpaceOnUse" x1="387.2" y1="261.1334" x2="387.2" y2="156.6886" gradientTransform="matrix(1 0 0 -1 0 500)">
						<stop  offset="1.694780e-03" style="stop-color:#00D4C8"/>
						<stop  offset="1" style="stop-color:#00D2C7;stop-opacity:0"/>
					</linearGradient>
					<ellipse class="st11" cx="387.2" cy="287.8" rx="52.8" ry="30.5"/>
					<g>
						<path id="XMLID_21_" class="st12" d="M400.1,278.7c-0.2,5.5-6.3,9.8-13.6,9.5c-7.3-0.2-13.1-4.9-12.9-10.4s6.3-9.8,13.6-9.5
							C394.5,268.5,400.3,273.2,400.1,278.7z"/>
						
							<linearGradient id="XMLID_3_" gradientUnits="userSpaceOnUse" x1="373.5669" y1="221.75" x2="400.0769" y2="221.75" gradientTransform="matrix(1 0 0 -1 0 500)">
							<stop  offset="3.946110e-03" style="stop-color:#FFFFFF;stop-opacity:0"/>
							<stop  offset="1" style="stop-color:#92A7AC"/>
						</linearGradient>
						<path id="XMLID_20_" class="st13" d="M400.1,278.7c-0.2,5.5-6.3,9.8-13.6,9.5c-7.3-0.2-13.1-4.9-12.9-10.4s6.3-9.8,13.6-9.5
							C394.5,268.5,400.3,273.2,400.1,278.7z"/>
						<path id="XMLID_19_" class="st14" d="M408.8,266.8c-0.2,6.7-10.1,11.8-22,11.4s-21.4-6.2-21.2-12.9c0.2-6.7,10.1-11.8,22-11.4
							C399.6,254.4,409.1,260.1,408.8,266.8z"/>
						
							<linearGradient id="XMLID_4_" gradientUnits="userSpaceOnUse" x1="379.8132" y1="233.95" x2="404.8752" y2="233.95" gradientTransform="matrix(1 0 0 -1 0 500)">
							<stop  offset="3.946110e-03" style="stop-color:#FFFFFF;stop-opacity:0"/>
							<stop  offset="1" style="stop-color:#92A7AC"/>
						</linearGradient>
						<path id="XMLID_18_" class="st15" d="M408.8,266.8c-0.2,6.7-10.1,11.8-22,11.4s-21.4-6.2-21.2-12.9c0.2-6.7,10.1-11.8,22-11.4
							C399.6,254.4,409.1,260.1,408.8,266.8z"/>
						
							<ellipse id="XMLID_17_" transform="matrix(3.361358e-02 -0.9994 0.9994 3.361358e-02 116.0052 637.1545)" class="st16" cx="387.5" cy="258.6" rx="12.2" ry="21.6"/>
						
							<linearGradient id="XMLID_5_" gradientUnits="userSpaceOnUse" x1="375.8516" y1="241.45" x2="406.008" y2="241.45" gradientTransform="matrix(1 0 0 -1 0 500)">
							<stop  offset="3.946110e-03" style="stop-color:#FFFFFF;stop-opacity:0"/>
							<stop  offset="1" style="stop-color:#92A7AC"/>
						</linearGradient>
						<path id="XMLID_16_" class="st17" d="M409.1,259.3c-0.2,6.7-10.1,11.8-22,11.4s-21.4-6.2-21.2-12.9c0.2-6.7,10.1-11.8,22-11.4
							C399.8,246.9,409.3,252.6,409.1,259.3z"/>
						<path id="XMLID_15_" class="st18" d="M369.1,261.4c-0.6,0.3-1.5-0.2-1.9-1.1c-0.5-0.9-0.4-1.9,0.2-2.2
							c0.6-0.3,1.5,0.2,1.9,1.1C369.8,260.1,369.7,261.1,369.1,261.4z"/>
						<path id="XMLID_14_" class="st18" d="M370.3,263.2c-0.4,0.2-0.9,0.1-1-0.3c-0.2-0.3,0-0.8,0.4-1s0.9-0.1,1,0.3
							C370.9,262.5,370.7,263,370.3,263.2z"/>
						<path id="XMLID_13_" class="st18" d="M369.2,269.4c-0.6,0.3-1.5-0.2-1.9-1.1c-0.5-0.9-0.4-1.9,0.2-2.2
							c0.6-0.3,1.5,0.2,1.9,1.1C369.9,268.2,369.8,269.1,369.2,269.4z"/>
						<path id="XMLID_12_" class="st18" d="M370.4,271.2c-0.4,0.2-0.9,0.1-1-0.3c-0.2-0.3,0-0.8,0.4-1s0.9-0.1,1,0.3
							S370.7,271.1,370.4,271.2z"/>
						<path id="XMLID_11_" class="st19" d="M426.6,207.9c0.1-21.8-17.4-36.3-39.1-36.4c-21.7-0.1-39.4,14.1-39.6,35.9
							c-0.1,21.4,10.8,24.6,16.3,35.6c1.7,3.4,1.1,6.5,1.1,6.5c-0.1,8.3,9,13,21.6,13.1s21.7-4.5,21.7-12.8c0,0-0.6-3.1,1.2-6.5
							C415.5,232.4,426.4,229.3,426.6,207.9z"/>
						
							<linearGradient id="SVGID_11_" gradientUnits="userSpaceOnUse" x1="378.1494" y1="297.2766" x2="412.2752" y2="256.8945" gradientTransform="matrix(1 0 0 -1 0 500)">
							<stop  offset="3.946110e-03" style="stop-color:#FFFFFF;stop-opacity:0"/>
							<stop  offset="1" style="stop-color:#FDC870"/>
						</linearGradient>
						<path class="st20" d="M426.6,207.9c0,1.3-0.1,2.6-0.1,3.8c-0.1,0.9-0.2,1.8-0.3,2.6c-0.6,4.3-1.7,7.7-3.1,10.6
							c0,0.1-0.1,0.1-0.1,0.2c-3.6,7.1-9.1,10.9-12.8,17.4c-0.1,0.2-0.3,0.5-0.4,0.7c-1.8,3.4-1.2,6.5-1.2,6.5c0,0.3,0,0.7-0.1,1
							c0,0.1,0,0.3,0,0.4c0,0.1,0,0.1,0,0.2c0,0.1,0,0.3-0.1,0.4c0,0.1,0,0.3-0.1,0.4c0,0.2-0.1,0.4-0.2,0.6l0,0
							c-0.2,0.5-0.4,1-0.6,1.5v0.1c-2.1,4.1-7.2,6.7-14,7.7c-2.1,0.3-4.3,0.5-6.6,0.4c-12.6-0.1-21.6-4.8-21.6-13.1
							c0,0,0.6-3-1.1-6.5c-5.6-11-16.5-14.2-16.3-35.6c0.1-21.8,17.8-36.1,39.6-35.9C409.2,171.6,426.7,186.1,426.6,207.9z"/>
						
							<linearGradient id="XMLID_6_" gradientUnits="userSpaceOnUse" x1="423.2165" y1="260.3082" x2="423.2165" y2="240.6162" gradientTransform="matrix(0.9996 -2.730000e-02 -2.730000e-02 -0.9996 -29.4195 469.4422)">
							<stop  offset="3.946110e-03" style="stop-color:#FFFFFF;stop-opacity:0"/>
							<stop  offset="1" style="stop-color:#FDC870"/>
						</linearGradient>
						<path id="XMLID_1_" class="st21" d="M399.7,226.8c-0.7-4.1-5.3-9.6-8.8-4.2c-2.4,3.7-2.1,9-2.1,13.3v0.3
							c-0.4,0-0.8,0.1-1.2,0.1c-0.1,0-0.2,0-0.3,0c-0.1,0-0.2,0-0.3-0.1c-0.4,0-0.8,0-1.1-0.1v-0.2c0.1-3.8,0.1-7.6-1.1-11.2
							c-1.8-5.7-7-5.4-9.1-0.1c-2,5.1-0.1,9,3.4,11.3c1.4,0.9,3,1.6,4.8,2c0,0.1,0,0.2,0,0.3c0,2.8,0,5.6-0.1,8.4c0,2.5,0,5,0,7.5
							c0,1.1,0,2.2,0,3.4c0,1.7,0,3.3,0,5c0.7,0,1.4,0.1,2,0.1c0-1.7,0-3.4,0-5.2c0-1.1,0-2.3,0-3.4c0-2.5,0-5,0.1-7.5
							c0-2.8,0-5.5,0-8.3c0.4,0,0.8,0.1,1.2,0.1c0.1,0,0.2,0,0.3,0c0.1,0,0.2,0.1,0.3,0c0.4,0,0.8,0,1.2-0.1c0,2.8,0,5.6-0.1,8.3
							c0,2.5,0,5,0,7.5c0,1.1,0,2.2,0,3.3c0,0.3,0,0.5,0,0.8c0,1.4,0,2.9,0,4.4l0,0l0,0l0,0c0,0,0,0,0.1,0l0,0h0.1
							c0.2,0,0.4,0,0.7,0c0.2,0,0.4,0,0.6,0s0.4,0,0.5,0c0-1.7,0-3.3,0-5c0-0.5,0-1,0-1.5c0-0.6,0-1.2,0-1.8c0-2.5,0-5,0.1-7.5
							c0-2.8,0-5.7,0.1-8.5v-0.3C396.3,236.8,400.7,233.2,399.7,226.8z M377,228.6c0-2.3,2.3-9.1,5.1-5.1c2.2,3.1,1.9,8.1,1.7,12.3
							C380.2,235,377,233,377,228.6z M390.8,235.9c-0.1-4.2-0.4-9.2,1.9-12.3c2.9-4,5.1,2.9,5.1,5.1
							C397.7,233.1,394.5,235.1,390.8,235.9z"/>
						
							<linearGradient id="SVGID_12_" gradientUnits="userSpaceOnUse" x1="436.2408" y1="244.2501" x2="406.0874" y2="294.9078" gradientTransform="matrix(0.9996 -2.730000e-02 -2.730000e-02 -0.9996 -29.4195 469.4422)">
							<stop  offset="3.946110e-03" style="stop-color:#FFFFFF;stop-opacity:0"/>
							<stop  offset="1" style="stop-color:#FFFFFF"/>
						</linearGradient>
						<path class="st22" d="M406.1,202.5c-10.6,6.5-28,7-39,1.1c-10.9-5.9-11.2-16-0.6-22.5s28-7,39-1.1S416.7,196,406.1,202.5z"/>
						
							<linearGradient id="SVGID_13_" gradientUnits="userSpaceOnUse" x1="366.4193" y1="272.002" x2="333.8318" y2="287.7834" gradientTransform="matrix(1 0 0 -1 0 500)">
							<stop  offset="3.946110e-03" style="stop-color:#FFFFFF;stop-opacity:0"/>
							<stop  offset="1" style="stop-color:#FFFFFF"/>
						</linearGradient>
						<path class="st23" d="M353.3,218.8c1.8,5.3,5.3,10.2,8.9,14.3c3.8,4.3,8.4,8.6,9.2,14.3c0.1,0.8,0.1,1.6,0.5,2.3
							s1.3,1.2,2,0.9c0.4-0.2,0.6-0.5,0.8-0.9c1.6-2.5,2.1-5.6,1.5-8.5c-1-4.6-4.6-8-7.6-11.4c-2.9-3.3-5.4-7.6-6.3-12
							c-0.6-2.7-0.8-5.6-1.4-8.3c-0.3-1.3-0.7-2.6-1.5-3.7c-0.8-1.1-2-1.9-3.4-1.8c-1.4,0-2.7,1.1-3.4,2.3c-0.7,1.3-0.9,2.7-0.9,4.1
							C351.9,213.4,352.4,216.2,353.3,218.8z"/>
						
							<linearGradient id="SVGID_14_" gradientUnits="userSpaceOnUse" x1="382.4449" y1="237.6608" x2="410.2135" y2="252.6132" gradientTransform="matrix(1 0 0 -1 0 500)">
							<stop  offset="3.946110e-03" style="stop-color:#FFFFFF;stop-opacity:0"/>
							<stop  offset="1" style="stop-color:#FDC870"/>
						</linearGradient>
						<path class="st24" d="M426.6,207.9c0,1.3,0,2.6-0.1,3.8c-0.1,0.9-0.2,1.8-0.3,2.6c-0.6,4.2-1.7,7.6-3.1,10.6
							c0,0.1-0.1,0.1-0.1,0.2c-3.6,7.1-9.1,10.9-12.8,17.4c-0.1,0.2-0.3,0.5-0.4,0.7c-1.8,3.4-1.2,6.5-1.2,6.5c0,0.3,0,0.7-0.1,1
							c0,0.1,0,0.3,0,0.4c0,0.1,0,0.1,0,0.2c0,0.1,0,0.3-0.1,0.4c0,0.1,0,0.3-0.1,0.4c0,0.2-0.1,0.4-0.2,0.6l0,0
							c-0.2,0.5-0.4,1-0.6,1.5v0.1c1.1,1.5,1.7,3.2,1.7,5c0,1.3-0.5,2.6-1.2,3.7c0.6,1.2,1,2.5,0.9,3.8c-0.1,4-3.7,7.4-9.1,9.5
							c0.2,0.8,0.3,1.6,0.3,2.4c-0.2,5.5-6.3,9.8-13.6,9.5c-0.4,0-0.8,0-1.2-0.1c1.6-1.9,3.4-3.7,4.3-5.5c3.2-6.3,3.6-13.6,3.9-20.5
							c0-0.1,0-0.3,0-0.4c0.3-5.8,0.6-11.6,1-17.4c0-0.6,0.1-1.2,0.3-1.7c0.7-1.6,2.7-1.9,4.4-2.3
							C417.5,235.9,425,222.3,426.6,207.9z"/>
						<path class="st19" d="M424.9,166.1c0,1.9-1.6,3.5-3.5,3.5s-3.5-1.6-3.5-3.5s1.6-3.5,3.5-3.5S424.9,164.2,424.9,166.1z"/>
						<path class="st19" d="M424.9,263.3c0,1.9-1.6,3.5-3.5,3.5s-3.5-1.6-3.5-3.5s1.6-3.5,3.5-3.5
							C423.3,259.7,424.9,261.3,424.9,263.3z"/>
						<circle class="st19" cx="357.7" cy="248.1" r="3.5"/>
						<circle class="st19" cx="428.8" cy="155.7" r="2.2"/>
						<circle class="st19" cx="424.9" cy="243.4" r="2.2"/>
						<circle class="st19" cx="363.5" cy="154.4" r="2.2"/>
						<circle class="st19" cx="431" cy="270.8" r="2.2"/>
						<circle class="st19" cx="351.9" cy="282.1" r="2.2"/>
					</g>
					<g>
						
							<linearGradient id="SVGID_15_" gradientUnits="userSpaceOnUse" x1="301.6114" y1="263.6875" x2="395.1487" y2="263.6875" gradientTransform="matrix(1 0 0 -1 0 500)">
							<stop  offset="1.694780e-03" style="stop-color:#00D4C8"/>
							<stop  offset="1" style="stop-color:#00D2C7;stop-opacity:0"/>
						</linearGradient>
						<path class="st25" d="M440,287.8V154.4c0,7.8-5.2,15.6-15.5,21.5c-20.6,11.9-54,11.9-74.6,0c-10.3-5.9-15.5-13.7-15.5-21.5
							v133.4l0,0c0,7.8,5.2,15.6,15.5,21.5c20.6,11.9,54,11.9,74.6,0C434.8,303.4,440,295.6,440,287.8z"/>
						
							<linearGradient id="SVGID_16_" gradientUnits="userSpaceOnUse" x1="461.5471" y1="263.6875" x2="395.8907" y2="263.6875" gradientTransform="matrix(1 0 0 -1 0 500)">
							<stop  offset="1.694780e-03" style="stop-color:#00D4C8"/>
							<stop  offset="1" style="stop-color:#00D2C7;stop-opacity:0"/>
						</linearGradient>
						<path class="st26" d="M440,287.8V154.4c0,7.8-5.2,15.6-15.5,21.5c-20.6,11.9-54,11.9-74.6,0c-10.3-5.9-15.5-13.7-15.5-21.5
							v133.4l0,0c0,7.8,5.2,15.6,15.5,21.5c20.6,11.9,54,11.9,74.6,0C434.8,303.4,440,295.6,440,287.8z"/>
						
							<linearGradient id="SVGID_17_" gradientUnits="userSpaceOnUse" x1="387.2" y1="394.5109" x2="387.2" y2="290.0661" gradientTransform="matrix(1 0 0 -1 0 500)">
							<stop  offset="1.694780e-03" style="stop-color:#00D4C8"/>
							<stop  offset="1" style="stop-color:#00D2C7;stop-opacity:0"/>
						</linearGradient>
						<ellipse class="st27" cx="387.2" cy="154.4" rx="52.8" ry="30.5"/>
					</g>
				</g>
				<path class="st10" d="M342.3,239.6L342.3,239.6c-2.2-1.3-3.6-3.7-3.6-6.2v-48.5c0-1.1,1.2-1.7,2.1-1.2l0,0
					c2.3,1.3,3.7,3.8,3.7,6.4v48.3C344.5,239.4,343.3,240.1,342.3,239.6z"/>
				<path class="st10" d="M342.3,261.4L342.3,261.4c-2.2-1.3-3.6-3.7-3.6-6.2v-6.9c0-1.1,1.2-1.7,2.1-1.2l0,0
					c2.3,1.3,3.7,3.8,3.7,6.4v6.7C344.5,261.3,343.3,262,342.3,261.4z"/>
			</g>
			<g>
				<path class="st8" d="M521.6,381.1v-31.9h-71.3v31.9l0,0c0,5.3,3.5,10.5,10.4,14.6c13.9,8,36.5,8,50.4,0
					C518.2,391.6,521.6,386.4,521.6,381.1z"/>
				
					<linearGradient id="SVGID_18_" gradientUnits="userSpaceOnUse" x1="480.6476" y1="124.55" x2="534.2783" y2="124.55" gradientTransform="matrix(1 0 0 -1 0 500)">
					<stop  offset="0" style="stop-color:#FFFFFF;stop-opacity:0"/>
					<stop  offset="1" style="stop-color:#662D8D"/>
				</linearGradient>
				<path class="st28" d="M521.6,381.1v-31.9h-71.3v31.9l0,0c0,5.3,3.5,10.5,10.4,14.6c13.9,8,36.5,8,50.4,0
					C518.2,391.6,521.6,386.4,521.6,381.1z"/>
				<ellipse class="st10" cx="486" cy="349.2" rx="35.7" ry="20.6"/>
				<g>
					
						<linearGradient id="SVGID_19_" gradientUnits="userSpaceOnUse" x1="486" y1="187.9005" x2="486" y2="117.2813" gradientTransform="matrix(1 0 0 -1 0 500)">
						<stop  offset="1.694780e-03" style="stop-color:#00D4C8"/>
						<stop  offset="1" style="stop-color:#00D2C7;stop-opacity:0"/>
					</linearGradient>
					<ellipse class="st29" cx="486" cy="345.2" rx="35.7" ry="20.6"/>
					<g>
						<path class="st19" d="M511.6,287.8c0,1.3-1.1,2.4-2.4,2.4s-2.4-1.1-2.4-2.4s1.1-2.4,2.4-2.4S511.6,286.5,511.6,287.8z"/>
						<circle class="st19" cx="506.8" cy="339" r="2.4"/>
						<path class="st19" d="M468.4,320.7c0,1.3-1.1,2.4-2.4,2.4s-2.4-1.1-2.4-2.4s1.1-2.4,2.4-2.4S468.4,319.4,468.4,320.7z"/>
						<path class="st19" d="M505.9,277.8c0,0.8-0.7,1.5-1.5,1.5s-1.5-0.7-1.5-1.5s0.7-1.5,1.5-1.5S505.9,276.9,505.9,277.8z"/>
						<path class="st19" d="M499.3,345.2c0,0.8-0.7,1.5-1.5,1.5s-1.5-0.7-1.5-1.5s0.7-1.5,1.5-1.5S499.3,344.4,499.3,345.2z"/>
						<path class="st19" d="M467.3,275.6c0,0.8-0.7,1.5-1.5,1.5s-1.5-0.7-1.5-1.5s0.7-1.5,1.5-1.5S467.3,274.8,467.3,275.6z"/>
						<path class="st19" d="M517.1,319.6c0,0.8-0.7,1.5-1.5,1.5s-1.5-0.7-1.5-1.5s0.7-1.5,1.5-1.5
							C516.4,318.1,517.1,318.8,517.1,319.6z"/>
						<path class="st19" d="M463.6,341.4c0,0.8-0.7,1.5-1.5,1.5s-1.5-0.7-1.5-1.5s0.7-1.5,1.5-1.5S463.6,340.5,463.6,341.4z"/>
						<g>
							<path class="st30" d="M508.3,313.9c0,0.1,0,0.2,0,0.3c0,1.4-0.1,2.7-0.4,3.9c-0.1,0.7-0.3,1.4-0.5,2.1
								c-0.9,2.8-2.5,4.8-4.5,6.1l0,0l-0.2,0.1c-0.1,0.1-0.2,0.1-0.3,0.2l-5.5,3.2l-1.2-2.1c-2.1-0.3-4.5-1.1-6.9-2.5
								c-10.8-6.2-19.6-21.4-19.6-33.9c0-1.3,0.1-2.5,0.3-3.6c0.1-0.7,0.3-1.4,0.4-2c0.2-0.5,0.3-1,0.5-1.5l-1.3-2.2l5.6-3.2
								c0.2-0.1,0.4-0.2,0.6-0.3l0.3-0.2l0,0c2.3-1.1,5-1.3,8.1-0.5c0.6,0.2,1.3,0.4,2,0.6c1,0.4,2.1,0.9,3.2,1.5
								c0.1,0,0.2,0.1,0.2,0.2c0.5,0.3,1,0.6,1.4,0.9c0.9,0.6,1.9,1.3,2.8,2.1c0.4,0.3,0.8,0.7,1.2,1.1c0.8,0.7,1.6,1.5,2.3,2.3
								c0.3,0.4,0.7,0.8,1,1.2c0.7,0.8,1.4,1.7,2,2.5c0.3,0.4,0.6,0.8,0.9,1.3c0.6,0.9,1.2,1.8,1.7,2.7c0.3,0.4,0.5,0.9,0.8,1.3
								c0.5,0.9,1,1.9,1.4,2.9c0.2,0.5,0.4,0.9,0.6,1.4c0.4,1,0.8,2,1.2,3c0.2,0.5,0.3,1,0.5,1.5c0.3,1.1,0.6,2.1,0.8,3.2
								c0.1,0.5,0.2,1.1,0.3,1.6c0.2,1.2,0.3,2.3,0.4,3.5C508.3,312.9,508.3,313.4,508.3,313.9z"/>
							<g>
								<path class="st31" d="M485.5,278.4l-16.1,9.3l-1.3,0.8l-0.4-1.5l2.1-1.2l13.7-7.9C484.2,277.9,484.9,278.1,485.5,278.4z"/>
								<path class="st31" d="M490.4,281l-19.5,11.3l-0.4-1.5l18.5-10.7C489.5,280.4,490,280.7,490.4,281z"/>
								<path class="st31" d="M494.4,284.2l-20.7,11.9l-0.4-1.5l19.9-11.5C493.6,283.4,494,283.8,494.4,284.2z"/>
								<path class="st31" d="M497.8,287.7l-21.2,12.2l-0.4-1.5l20.6-11.9C497.1,286.9,497.4,287.3,497.8,287.7z"/>
								<path class="st31" d="M500.6,291.4l-21.3,12.3l-0.4-1.5l20.8-12C500.1,290.6,500.4,291,500.6,291.4z"/>
								<path class="st31" d="M503.1,295.5l-21,12.1l-0.4-1.5l20.6-11.9C502.6,294.6,502.9,295,503.1,295.5z"/>
								<path class="st31" d="M505.2,299.7L485,311.4l-0.4-1.5l20-11.6C504.8,298.8,505,299.2,505.2,299.7z"/>
								<path class="st31" d="M506.8,304.2l-19.1,11l-0.4-1.5l19-11C506.5,303.2,506.7,303.7,506.8,304.2z"/>
								<path class="st31" d="M507.9,309l-17.4,10.1l-0.4-1.5l17.5-10.1C507.8,307.9,507.9,308.5,507.9,309z"/>
								<path class="st31" d="M508.3,313.9c0,0.1,0,0.2,0,0.3l-15,8.7l-0.4-1.5l15.4-8.9C508.3,312.9,508.3,313.4,508.3,313.9z"/>
								<path class="st31" d="M508,318.1c-0.1,0.7-0.3,1.4-0.5,2.1l-11.3,6.5l-0.4-1.5L508,318.1z"/>
							</g>
							<ellipse transform="matrix(0.866 -0.5 0.5 0.866 -88.1556 282.577)" class="st32" cx="483.2" cy="305.8" rx="16" ry="27.7"/>
							<path class="st30" d="M486.8,290.2c-0.7,0-1.4,0-2,0c0.7,0.6,1.5,1.3,2.2,2l1.2-0.7C487.7,291,487.2,290.6,486.8,290.2z
								 M469.4,287.7v0.1c0.1,0,0.3,0.1,0.4,0.1c0.2-0.3,0.4-0.6,0.5-0.8L469.4,287.7z M486.8,290.2c-0.7,0-1.4,0-2,0
								c0.7,0.6,1.5,1.3,2.2,2l1.2-0.7C487.7,291,487.2,290.6,486.8,290.2z M469.4,287.8c0.1,0,0.3,0.1,0.4,0.1
								c0.2-0.3,0.4-0.6,0.5-0.8l-1,0.6C469.4,287.7,469.4,287.8,469.4,287.8z M499.1,314.1c-0.1-0.5-0.1-1.1-0.2-1.6
								c-0.2-1.1-0.4-2.2-0.8-3.3c-0.1-0.5-0.3-1-0.4-1.5c-0.3-1-0.7-2-1.1-3c-0.2-0.5-0.4-0.9-0.6-1.4c-0.4-1-0.9-1.9-1.4-2.9
								c-0.2-0.5-0.5-0.9-0.8-1.3c-0.5-0.9-1.1-1.8-1.7-2.7c-0.3-0.4-0.6-0.8-0.9-1.2c-0.6-0.9-1.3-1.7-2-2.5
								c-0.4-0.4-0.7-0.8-1.1-1.1c-0.4-0.5-0.9-0.9-1.3-1.3c-0.4-0.3-0.7-0.7-1.1-1c-0.4-0.4-0.8-0.7-1.2-1c-1-0.8-1.9-1.4-2.9-2
								c0,0,0,0-0.1,0c-0.5-0.3-1-0.6-1.5-0.8c-1.4-0.7-2.8-1.1-4.1-1.3c-0.5-0.1-0.9-0.1-1.3-0.1c-0.7,0-1.3,0.1-1.9,0.2
								c-1.1,0.3-1.9,0.8-2.6,1.4l-0.2,0.2l0,0c-0.5,0.5-0.9,1.1-1.2,1.7c-0.1,0.3-0.3,0.5-0.4,0.8l0,0c-0.9,2.2-1.1,4.6-1.1,6.1
								c0,10.7,7.5,24.2,16.7,30.2c0.4,0.3,0.8,0.5,1.2,0.8c2.5,1.4,4.9,2.2,7,2.2c0.7,0,1.4-0.1,2-0.3c0.8-0.2,1.5-0.6,2.1-1
								c0.3-0.2,0.6-0.5,0.8-0.8c0.5-0.5,0.8-1.1,1.1-1.7l0,0c0.7-1.4,1.1-3,1.2-4.4c0.1-0.7,0.1-1.3,0.1-1.8c0-0.2,0-0.4,0-0.6
								C499.3,316.1,499.3,315.1,499.1,314.1z M497.7,320.4c-0.4,1.8-1.1,3.8-2.6,4.9c-0.8,0.6-1.8,1-3.1,1c-0.5,0-0.9,0-1.4-0.1
								l0,0c-1.3-0.2-2.7-0.7-4.2-1.5l0,0c-0.2-0.1-0.5-0.2-0.7-0.4c-9.3-5.4-17.2-19-17.2-29.8c0-1.3,0.1-3.4,0.8-5.3
								c0.2-0.4,0.4-0.8,0.6-1.2c0.2-0.3,0.4-0.6,0.5-0.8l0,0c0.7-0.9,1.7-1.5,3.1-1.8l0,0c0.3,0,0.6-0.1,1-0.1c1.2,0,2.6,0.3,4,0.9
								c0.5,0.2,1.1,0.5,1.7,0.8c0.2,0.1,0.4,0.2,0.6,0.4c0.8,0.5,1.6,1,2.4,1.6c0.4,0.3,0.9,0.7,1.3,1c0.1,0.1,0.2,0.1,0.3,0.2l0,0
								c0.7,0.6,1.5,1.3,2.2,2c0.4,0.4,0.7,0.8,1.1,1.1c0.7,0.8,1.4,1.6,2,2.5c0.3,0.4,0.6,0.8,0.9,1.2c0.6,0.9,1.2,1.8,1.7,2.7
								c0.3,0.4,0.5,0.9,0.8,1.3c0.5,0.9,1,1.9,1.4,2.9c0.2,0.5,0.4,0.9,0.6,1.4c0.4,1,0.8,2,1.1,3.1l0,0c0.2,0.5,0.3,1,0.5,1.5
								c0.3,1.1,0.5,2.2,0.7,3.3c0.1,0.6,0.2,1.1,0.2,1.6c0.1,0.8,0.1,1.5,0.1,2.2c0,0.4,0,0.9,0,1.4
								C497.9,319.1,497.8,319.7,497.7,320.4z M469.4,287.7v0.1c0.1,0,0.3,0.1,0.4,0.1c0.2-0.3,0.4-0.6,0.5-0.8L469.4,287.7z
								 M486.8,290.2c-0.7,0-1.4,0-2,0c0.7,0.6,1.5,1.3,2.2,2l1.2-0.7C487.7,291,487.2,290.6,486.8,290.2z"/>
							<g>
								<path class="st30" d="M488.6,309.3c-0.2-0.5-0.4-0.9-0.7-1.4c-0.6-0.9-1.3-1.7-2.1-2.5c-0.4-0.4-0.8-0.7-1.2-1.1
									c-0.3-0.2-0.6-0.5-0.9-0.7c-0.8-0.5-1.4-1-1.8-1.4c-0.3-0.4-0.5-0.8-0.5-1.3c0-0.1,0-0.2,0-0.2c0.1-0.3,0.3-0.4,0.6-0.3
									c0.3,0,0.8,0.2,1.2,0.5c0.2,0.1,0.3,0.2,0.5,0.3c0.9,0.6,1.7,1.3,2.5,2.3c0.1,0.1,0.2,0.2,0.2,0.3l1.5-1.4l0,0l0,0l0.4-0.3
									c-0.6-0.9-1.3-1.7-2-2.4c-0.4-0.4-0.8-0.7-1.2-1.1c-0.1-0.1-0.2-0.2-0.4-0.3v-2l-1-0.6l-1.5-0.9l-0.7-0.4v2.1
									c-0.5-0.2-1-0.3-1.5-0.4l0,0c-1.1-0.1-1.9,0.3-2.3,1.3c-0.1,0.4-0.2,0.8-0.2,1.3c0,0.2,0,0.4,0,0.5c0.1,1.8,0.8,3.2,1.7,4.4
									l0,0l0,0c0.7,0.8,1.5,1.6,2.4,2.3c0.4,0.3,0.9,0.7,1.4,1c0,0,0,0,0.1,0c1.2,0.9,2,1.7,2.2,2.4c0.1,0.1,0.1,0.3,0.1,0.4
									c0,0.5-0.3,0.7-0.7,0.7c-0.4,0-0.9-0.2-1.4-0.5c-1.1-0.7-2.6-1.8-4-4.1l-2.1,1.6c1.4,2.6,2.8,4.1,4.4,5.2v2.1l3.3,1.9v-2.2
									c1.1,0.4,2,0.5,2.8,0.3c0.9-0.2,1.4-0.9,1.6-2.2l0,0c0-0.2,0-0.4,0-0.5C489.2,311.1,489,310.1,488.6,309.3z"/>
							</g>
						</g>
					</g>
					<g>
						
							<linearGradient id="SVGID_20_" gradientUnits="userSpaceOnUse" x1="428.0967" y1="182.3" x2="491.3409" y2="182.3" gradientTransform="matrix(1 0 0 -1 0 500)">
							<stop  offset="1.694780e-03" style="stop-color:#00D4C8"/>
							<stop  offset="1" style="stop-color:#00D2C7;stop-opacity:0"/>
						</linearGradient>
						<path class="st33" d="M521.6,345.2v-75.6c0,5.3-3.5,10.5-10.4,14.6c-13.9,8-36.5,8-50.4,0c-7-4-10.4-9.3-10.4-14.6v75.6l0,0
							c0,5.3,3.5,10.5,10.4,14.6c13.9,8,36.5,8,50.4,0C518.2,355.7,521.6,350.5,521.6,345.2z"/>
						
							<linearGradient id="SVGID_21_" gradientUnits="userSpaceOnUse" x1="536.2354" y1="182.3" x2="491.8426" y2="182.3" gradientTransform="matrix(1 0 0 -1 0 500)">
							<stop  offset="1.694780e-03" style="stop-color:#00D4C8"/>
							<stop  offset="1" style="stop-color:#00D2C7;stop-opacity:0"/>
						</linearGradient>
						<path class="st34" d="M521.6,345.2v-75.6c0,5.3-3.5,10.5-10.4,14.6c-13.9,8-36.5,8-50.4,0c-7-4-10.4-9.3-10.4-14.6v75.6l0,0
							c0,5.3,3.5,10.5,10.4,14.6c13.9,8,36.5,8,50.4,0C518.2,355.7,521.6,350.5,521.6,345.2z"/>
						
							<linearGradient id="SVGID_22_" gradientUnits="userSpaceOnUse" x1="486" y1="263.5234" x2="486" y2="192.9042" gradientTransform="matrix(1 0 0 -1 0 500)">
							<stop  offset="1.694780e-03" style="stop-color:#00D4C8"/>
							<stop  offset="1" style="stop-color:#00D2C7;stop-opacity:0"/>
						</linearGradient>
						<ellipse class="st35" cx="486" cy="269.6" rx="35.7" ry="20.6"/>
					</g>
				</g>
				<path class="st10" d="M455.6,312.6L455.6,312.6c-1.5-0.9-2.4-2.5-2.4-4.2v-21.8c0-0.7,0.8-1.2,1.4-0.8l0,0
					c1.5,0.9,2.5,2.5,2.5,4.3v21.7C457.1,312.5,456.3,313,455.6,312.6z"/>
				<path class="st10" d="M455.6,327.3L455.6,327.3c-1.5-0.9-2.4-2.5-2.4-4.2v-4.7c0-0.7,0.8-1.2,1.4-0.8l0,0
					c1.5,0.9,2.5,2.5,2.5,4.3v4.5C457.1,327.2,456.3,327.7,455.6,327.3z"/>
			</g>
			<g>
				<path class="st8" d="M324,281.4v-31.9h-71.3v31.9l0,0c0,5.3,3.5,10.5,10.4,14.6c13.9,8,36.5,8,50.4,0
					C320.5,291.9,324,286.6,324,281.4z"/>
				
					<linearGradient id="SVGID_23_" gradientUnits="userSpaceOnUse" x1="283.0164" y1="224.25" x2="336.647" y2="224.25" gradientTransform="matrix(1 0 0 -1 0 500)">
					<stop  offset="0" style="stop-color:#FFFFFF;stop-opacity:0"/>
					<stop  offset="1" style="stop-color:#662D8D"/>
				</linearGradient>
				<path class="st36" d="M324,281.4v-31.9h-71.3v31.9l0,0c0,5.3,3.5,10.5,10.4,14.6c13.9,8,36.5,8,50.4,0
					C320.5,291.9,324,286.6,324,281.4z"/>
				<ellipse class="st10" cx="288.3" cy="249.5" rx="35.7" ry="20.6"/>
				<g>
					
						<linearGradient id="SVGID_24_" gradientUnits="userSpaceOnUse" x1="288.3" y1="287.6322" x2="288.3" y2="217.013" gradientTransform="matrix(1 0 0 -1 0 500)">
						<stop  offset="1.694780e-03" style="stop-color:#00D4C8"/>
						<stop  offset="1" style="stop-color:#00D2C7;stop-opacity:0"/>
					</linearGradient>
					<ellipse class="st37" cx="288.3" cy="245.5" rx="35.7" ry="20.6"/>
					<g>
						<circle class="st38" cx="311.6" cy="188.1" r="2.4"/>
						<circle class="st38" cx="309.2" cy="239.2" r="2.4"/>
						<path class="st38" d="M270.8,221c0,1.3-1.1,2.4-2.4,2.4s-2.4-1.1-2.4-2.4c0-1.3,1.1-2.4,2.4-2.4
							C269.7,218.6,270.8,219.7,270.8,221z"/>
						<path class="st38" d="M308.3,178c0,0.8-0.7,1.5-1.5,1.5s-1.5-0.7-1.5-1.5s0.7-1.5,1.5-1.5S308.3,177.2,308.3,178z"/>
						<path class="st38" d="M301.6,245.5c0,0.8-0.7,1.5-1.5,1.5s-1.5-0.7-1.5-1.5s0.7-1.5,1.5-1.5S301.6,244.6,301.6,245.5z"/>
						<path class="st38" d="M269.6,175.9c0,0.8-0.7,1.5-1.5,1.5s-1.5-0.7-1.5-1.5s0.7-1.5,1.5-1.5S269.6,175,269.6,175.9z"/>
						<path class="st38" d="M319.4,219.9c0,0.8-0.7,1.5-1.5,1.5s-1.5-0.7-1.5-1.5s0.7-1.5,1.5-1.5S319.4,219.1,319.4,219.9z"/>
						<path class="st38" d="M266,241.6c0,0.8-0.7,1.5-1.5,1.5s-1.5-0.7-1.5-1.5s0.7-1.5,1.5-1.5S266,240.8,266,241.6z"/>
						<g>
							<path class="st38" d="M310.7,214.1c0,0.1,0,0.2,0,0.3c0,1.4-0.1,2.7-0.4,3.9c-0.1,0.7-0.3,1.4-0.5,2.1
								c-0.9,2.8-2.5,4.8-4.5,6.1l0,0l-0.2,0.1c-0.1,0.1-0.2,0.1-0.3,0.2l-5.5,3.2l-1.3-2c-2.1-0.3-4.5-1.1-6.9-2.5
								c-10.8-6.2-19.6-21.4-19.6-33.9c0-1.3,0.1-2.5,0.3-3.6c0.1-0.7,0.3-1.4,0.4-2c0.2-0.5,0.3-1,0.5-1.5l-1.3-2.2l5.6-3.2
								c0.2-0.1,0.4-0.2,0.6-0.3l0.3-0.2l0,0c2.3-1.1,5-1.3,8.1-0.5c0.6,0.2,1.3,0.4,2,0.6c1,0.4,2.1,0.9,3.2,1.5
								c0.1,0,0.2,0.1,0.2,0.2c0.5,0.3,1,0.6,1.4,0.9c0.9,0.6,1.9,1.3,2.8,2.1c0.4,0.3,0.8,0.7,1.2,1.1c0.8,0.7,1.6,1.5,2.3,2.3
								c0.3,0.4,0.7,0.8,1,1.2c0.7,0.8,1.4,1.7,2,2.5c0.3,0.4,0.6,0.8,0.9,1.3c0.6,0.9,1.2,1.8,1.7,2.7c0.3,0.4,0.5,0.9,0.8,1.3
								c0.5,0.9,1,1.9,1.4,2.9c0.2,0.5,0.4,0.9,0.6,1.4c0.4,1,0.8,2,1.2,3c0.2,0.5,0.3,1,0.5,1.5c0.3,1.1,0.6,2.1,0.8,3.2
								c0.1,0.5,0.2,1.1,0.3,1.6c0.2,1.2,0.3,2.3,0.4,3.5C310.7,213.2,310.7,213.7,310.7,214.1z"/>
							
								<linearGradient id="SVGID_25_" gradientUnits="userSpaceOnUse" x1="285.8477" y1="307.2449" x2="306.7428" y2="267.017" gradientTransform="matrix(1 0 0 -1 0 500)">
								<stop  offset="0" style="stop-color:#FFFFFF;stop-opacity:0"/>
								<stop  offset="1" style="stop-color:#662D8D"/>
							</linearGradient>
							<path class="st39" d="M310.7,214.1c0,0.1,0,0.2,0,0.3c0,1.4-0.1,2.7-0.4,3.9c-0.1,0.7-0.3,1.4-0.5,2.1
								c-0.9,2.8-2.5,4.8-4.5,6.1l0,0l-0.2,0.1c-0.1,0.1-0.2,0.1-0.3,0.2l-5.5,3.2l-1.3-2c-2.1-0.3-4.5-1.1-6.9-2.5
								c-10.8-6.2-19.6-21.4-19.6-33.9c0-1.3,0.1-2.5,0.3-3.6c0.1-0.7,0.3-1.4,0.4-2c0.2-0.5,0.3-1,0.5-1.5l-1.3-2.2l5.6-3.2
								c0.2-0.1,0.4-0.2,0.6-0.3l0.3-0.2l0,0c2.3-1.1,5-1.3,8.1-0.5c0.6,0.2,1.3,0.4,2,0.6c1,0.4,2.1,0.9,3.2,1.5
								c0.1,0,0.2,0.1,0.2,0.2c0.5,0.3,1,0.6,1.4,0.9c0.9,0.6,1.9,1.3,2.8,2.1c0.4,0.3,0.8,0.7,1.2,1.1c0.8,0.7,1.6,1.5,2.3,2.3
								c0.3,0.4,0.7,0.8,1,1.2c0.7,0.8,1.4,1.7,2,2.5c0.3,0.4,0.6,0.8,0.9,1.3c0.6,0.9,1.2,1.8,1.7,2.7c0.3,0.4,0.5,0.9,0.8,1.3
								c0.5,0.9,1,1.9,1.4,2.9c0.2,0.5,0.4,0.9,0.6,1.4c0.4,1,0.8,2,1.2,3c0.2,0.5,0.3,1,0.5,1.5c0.3,1.1,0.6,2.1,0.8,3.2
								c0.1,0.5,0.2,1.1,0.3,1.6c0.2,1.2,0.3,2.3,0.4,3.5C310.7,213.2,310.7,213.7,310.7,214.1z"/>
							<ellipse transform="matrix(0.866 -0.5 0.5 0.866 -64.7309 170.3861)" class="st40" cx="285.6" cy="206" rx="16" ry="27.7"/>
							
								<ellipse transform="matrix(0.866 -0.5 0.5 0.866 -64.7311 170.3861)" class="st41" cx="285.6" cy="206" rx="12.6" ry="21.9"/>
							<ellipse transform="matrix(0.866 -0.5 0.5 0.866 -64.731 170.3861)" class="st41" cx="285.6" cy="206" rx="8.8" ry="15.2"/>
							<path class="st41" d="M291.9,209.7c0,4.1-2.9,5.7-6.4,3.7s-6.4-7-6.4-11c0-4.1,2.9-5.7,6.4-3.7
								C289.1,200.7,291.9,205.6,291.9,209.7z"/>
							<path class="st10" d="M288.1,207.5c0,1.6-1.1,2.2-2.5,1.4s-2.5-2.7-2.5-4.3s1.1-2.2,2.5-1.4
								C286.9,203.9,288.1,205.9,288.1,207.5z"/>
						</g>
					</g>
					<g>
						
							<linearGradient id="SVGID_26_" gradientUnits="userSpaceOnUse" x1="230.4655" y1="282" x2="293.7096" y2="282" gradientTransform="matrix(1 0 0 -1 0 500)">
							<stop  offset="1.694780e-03" style="stop-color:#00D4C8"/>
							<stop  offset="1" style="stop-color:#00D2C7;stop-opacity:0"/>
						</linearGradient>
						<path class="st42" d="M324,245.5v-75.6c0,5.3-3.5,10.5-10.4,14.6c-13.9,8-36.5,8-50.4,0c-7-4-10.4-9.3-10.4-14.6v75.6l0,0
							c0,5.3,3.5,10.5,10.4,14.6c13.9,8,36.5,8,50.4,0C320.5,256,324,250.7,324,245.5z"/>
						
							<linearGradient id="SVGID_27_" gradientUnits="userSpaceOnUse" x1="338.6041" y1="282" x2="294.2113" y2="282" gradientTransform="matrix(1 0 0 -1 0 500)">
							<stop  offset="1.694780e-03" style="stop-color:#00D4C8"/>
							<stop  offset="1" style="stop-color:#00D2C7;stop-opacity:0"/>
						</linearGradient>
						<path class="st43" d="M324,245.5v-75.6c0,5.3-3.5,10.5-10.4,14.6c-13.9,8-36.5,8-50.4,0c-7-4-10.4-9.3-10.4-14.6v75.6l0,0
							c0,5.3,3.5,10.5,10.4,14.6c13.9,8,36.5,8,50.4,0C320.5,256,324,250.7,324,245.5z"/>
						
							<linearGradient id="SVGID_28_" gradientUnits="userSpaceOnUse" x1="288.3" y1="363.2551" x2="288.3" y2="292.6359" gradientTransform="matrix(1 0 0 -1 0 500)">
							<stop  offset="1.694780e-03" style="stop-color:#00D4C8"/>
							<stop  offset="1" style="stop-color:#00D2C7;stop-opacity:0"/>
						</linearGradient>
						<ellipse class="st44" cx="288.3" cy="169.8" rx="35.7" ry="20.6"/>
					</g>
				</g>
				<path class="st10" d="M258,212.8L258,212.8c-1.5-0.9-2.4-2.5-2.4-4.2v-21.8c0-0.7,0.8-1.2,1.4-0.8l0,0c1.5,0.9,2.5,2.5,2.5,4.3
					V212C259.5,212.7,258.7,213.2,258,212.8z"/>
				<path class="st10" d="M258,227.6L258,227.6c-1.5-0.9-2.4-2.5-2.4-4.2v-4.7c0-0.7,0.8-1.2,1.4-0.8l0,0c1.5,0.9,2.5,2.5,2.5,4.3
					v4.5C259.5,227.5,258.7,228,258,227.6z"/>
			</g>
			<g>
				<path class="st45" d="M397.2,335.7c0,0-5.9,6.3-6.3,12.5l1.1,2.5l2.4-1.7c0,0,1.7-8.2,4.7-10.6L397.2,335.7z"/>
				<path class="st46" d="M411,409.1c0,0,0.4,3.9-1.5,3.7c-2.2-0.2-9.1-4.8-7.5-6.3c1.5-1.5,7.2,1.2,7.2,1.2L411,409.1z"/>
				<path class="st46" d="M398.8,414.8c0,0,0.4,3.9-1.5,3.7c-2.2-0.2-9-4.8-7.5-6.3s7.2,1.2,7.2,1.2L398.8,414.8z"/>
				<rect x="400.5" y="318.2" class="st47" width="4.1" height="5.7"/>
				<path class="st45" d="M396.2,349.2c0,0-6.5,14.9-1.6,66.1c0,0.3,0.2,0.5,0.4,0.6c0.9,0.5,3,1.4,4.1-1.5c0-0.1,0-0.2,0.1-0.2
					l4.3-53.6c0-0.9,0.5-0.9,0.6,0l2.6,49c0,0.4,0.3,0.7,0.6,0.8c1.1,0.4,3.6,0.9,4.1-2.7c0,0,4.4-53-0.7-60.2L396.2,349.2z"/>
				<path class="st46" d="M410.6,345.8c-0.1,0.2-0.3,0.4-0.4,0.6c-1.5,1.5-5.5,4.3-13.5,1.4c-0.2-0.1-0.3-0.2-0.5-0.3v1.6
					c0.1,0.1,0.3,0.2,0.5,0.3c8,2.9,12,0.1,13.5-1.4c0.2-0.2,0.3-0.4,0.4-0.6V345.8z"/>
				<path class="st10" d="M426.8,297.2c0,0,0-3.5,0.5-3.5c0.3-0.1,0.3,1.1,0.3,1.1s0.4-2.6,0.9-2.4c0.2,0.1-0.1,1.6-0.1,1.6
					s0.2-0.9,1.7,0c0.4,0.3,0.3,1.1-1.4,3.8L426.8,297.2z"/>
				<path class="st48" d="M409.7,320.4c0,0,12.1-1.1,16.9-23.5c0,0,1.3-0.2,2.3,0.8c0,0-0.7,27-17.5,32.2L409.7,320.4z"/>
				<path class="st49" d="M400.5,322l4.1-0.9l6.4-0.8c1.6-0.2,2.7,2.1,2.8,4.5c0.2,4.6-2.9,20.3-2.9,20.3c0,0.6-0.3,1.2-0.7,1.7
					c-1.5,1.5-5.5,4.3-13.5,1.4c-0.5-0.2-0.9-0.6-1-1.2l-3-18.6c-0.2-1,0.3-1.9,1.1-2.5L400.5,322z"/>
				<path class="st10" d="M395.5,311c0,0,0.5,5.5,2.8,8.4c2.3,2.8,6.7-1.8,7.4-3.2c0.7-1.4,1.7-9.9-5.2-9.9
					C396,306.3,395.3,309,395.5,311z"/>
				<path class="st45" d="M402.1,314.5c0,0-2.3-1.6-3.2-4.4c0,0-0.5-0.3-3.3,2.1c0,0-3.2,0-1.7-3.4s7.6-7.6,10.5-4.2
					c0,0,5.6-0.9,4.5,6.3c-1.4,9.6-5.9,8-7,5.8C400.9,314.5,402.1,314.5,402.1,314.5z"/>
				<path class="st10" d="M400.7,313.4c0,0,0.9-1.8,1.7-0.7c0.8,1.1-0.2,3.3-1.8,3.6L400.7,313.4z"/>
				<polygon class="st45" points="375.4,320.4 384,329 392.6,323.8 384,315 				"/>
				<polyline class="st50" points="383.2,325 383.2,323 385.1,323 385.1,319 				"/>
				<polyline class="st50" points="383.3,320.1 385,318.5 386.8,320.3 				"/>
				<path class="st10" d="M379.1,324.1c0-0.1,0.7-0.8,1.2-1.3c0.2-0.2,0.4,0,0.4,0.2l-0.4,1.3c0,0,1.8-0.5,0.8,2.5l-1.8,0.5
					L379.1,324.1z"/>
				<path class="st48" d="M381.3,326.7c0,0,9.4,17,3.8,18c-5.6,1.1-5.9-17.5-5.9-17.5S379.8,326.5,381.3,326.7z"/>
				<path class="st48" d="M393.8,326c0,0-2.5,1.3-6.1,6.3c-4.8,6.8-7,10.9-2.5,12.4c1.1,0.4,8.9-7.8,8.9-7.8S397.3,330.1,393.8,326z
					"/>
				<path class="st48" d="M399.7,322.5l0.8-1.4c0,0,1.4-0.9,4.1-0.9l1,0.8C405.6,321,405.4,322,399.7,322.5z"/>
			</g>
			<g>
				<polygon class="st8" points="316.9,305.7 286.2,375 283.4,373.3 283.4,333.1 				"/>
				<polygon class="st8" points="319.6,307.4 319.6,355.6 286.2,375 286.2,334.7 				"/>
				
					<linearGradient id="SVGID_29_" gradientUnits="userSpaceOnUse" x1="286.5552" y1="191.4895" x2="324.4398" y2="115.7204" gradientTransform="matrix(1 0 0 -1 0 500)">
					<stop  offset="0" style="stop-color:#FFFFFF;stop-opacity:0"/>
					<stop  offset="1" style="stop-color:#662D8D"/>
				</linearGradient>
				<polygon class="st51" points="319.6,307.4 319.6,355.6 286.2,375 286.2,334.7 				"/>
			</g>
			<g>
				<polygon class="st8" points="370.8,336.8 340.1,406.1 337.3,404.4 337.3,364.2 				"/>
				<polygon class="st8" points="373.6,338.5 373.6,386.7 340.1,406.1 340.1,365.8 				"/>
				
					<linearGradient id="SVGID_30_" gradientUnits="userSpaceOnUse" x1="312.3575" y1="127.7" x2="415.308" y2="127.7" gradientTransform="matrix(1 0 0 -1 0 500)">
					<stop  offset="0" style="stop-color:#FFFFFF;stop-opacity:0"/>
					<stop  offset="1" style="stop-color:#662D8D"/>
				</linearGradient>
				<polygon class="st52" points="373.6,338.5 373.6,386.7 340.1,406.1 340.1,365.8 				"/>
			</g>
			<polygon class="st8" points="340.1,368.5 283.4,335.8 373.6,338.5 373.6,341.2 			"/>
			
				<linearGradient id="SVGID_31_" gradientUnits="userSpaceOnUse" x1="312.3574" y1="147.85" x2="415.3075" y2="147.85" gradientTransform="matrix(1 0 0 -1 0 500)">
				<stop  offset="0" style="stop-color:#FFFFFF;stop-opacity:0"/>
				<stop  offset="1" style="stop-color:#662D8D"/>
			</linearGradient>
			<polygon class="st53" points="340.1,368.5 283.4,335.8 373.6,338.5 373.6,341.2 			"/>
			<polygon class="st10" points="340.1,365.8 283.4,333.1 316.9,305.7 373.6,338.5 			"/>
			<polygon class="st45" points="339.3,361.3 290,332.8 317.6,310.2 367,338.7 			"/>
			
				<linearGradient id="SVGID_32_" gradientUnits="userSpaceOnUse" x1="324.5229" y1="187.3509" x2="321.8751" y2="161.2505" gradientTransform="matrix(1 0 0 -1 0 500)">
				<stop  offset="3.946110e-03" style="stop-color:#FFFFFF;stop-opacity:0"/>
				<stop  offset="1" style="stop-color:#FDC870"/>
			</linearGradient>
			<path class="st54" d="M326.8,336.4L308,325.5c-0.4-0.3-0.5-0.9-0.1-1.2l9.9-8.1c0.5-0.4,1.3-0.5,1.9-0.2l18.5,10.7
				c0.6,0.3,0.6,1.1,0.1,1.5l-9.7,7.9C328.2,336.6,327.4,336.7,326.8,336.4z"/>
			
				<linearGradient id="SVGID_33_" gradientUnits="userSpaceOnUse" x1="315.5963" y1="171.3711" x2="308.9455" y2="158.7573" gradientTransform="matrix(1 0 0 -1 0 500)">
				<stop  offset="0" style="stop-color:#BA68C8;stop-opacity:0"/>
				<stop  offset="1" style="stop-color:#BA68C8"/>
			</linearGradient>
			<path class="st55" d="M318.4,343.1l-18.8-10.9c-0.4-0.3-0.5-0.9-0.1-1.2l4.9-3.9c0.5-0.4,1.3-0.5,1.9-0.2l18.5,10.7
				c0.6,0.3,0.6,1.1,0.1,1.5l-4.7,3.7C319.7,343.4,319,343.4,318.4,343.1z"/>
			<g>
				
					<linearGradient id="SVGID_34_" gradientUnits="userSpaceOnUse" x1="331.2849" y1="161.5201" x2="325.0956" y2="149.7819" gradientTransform="matrix(1 0 0 -1 0 500)">
					<stop  offset="1.694780e-03" style="stop-color:#00D4C8"/>
					<stop  offset="1" style="stop-color:#00D2C7;stop-opacity:0"/>
				</linearGradient>
				<path class="st56" d="M327.9,348.8l-6.1-3.5c-0.4-0.3-0.5-0.9-0.1-1.2l4.9-3.9c0.5-0.4,1.3-0.5,1.9-0.2l5.9,3.4
					c0.6,0.3,0.6,1.1,0.1,1.5l-4.7,3.7C329.2,349.1,328.5,349.1,327.9,348.8z"/>
				
					<linearGradient id="SVGID_35_" gradientUnits="userSpaceOnUse" x1="341.0377" y1="161.7684" x2="335.0522" y2="142.3157" gradientTransform="matrix(1 0 0 -1 0 500)">
					<stop  offset="1.694780e-03" style="stop-color:#EF5350"/>
					<stop  offset="1" style="stop-color:#EF5350;stop-opacity:0"/>
				</linearGradient>
				<path class="st57" d="M337.5,354.2l-6.5-3.9c-0.4-0.3-0.5-0.9-0.1-1.2l4.9-3.9c0.5-0.4,1.3-0.5,1.9-0.2l6.3,3.7
					c0.6,0.3,0.6,1.1,0.1,1.5l-4.7,3.7C338.8,354.5,338.1,354.6,337.5,354.2z"/>
			</g>
			<polygon class="st8" points="340.1,368.5 340.1,365.8 283.4,333.1 283.4,335.8 			"/>
			<path class="st58" d="M311.7,324.9c0-0.1,9.1-0.7,9.1-0.7l1.8,3.2h10.9l-2.4-1.1"/>
			<line class="st58" x1="333.5" y1="327.3" x2="333.5" y2="329.2"/>
			<ellipse class="st40" cx="343.7" cy="331.1" rx="1.1" ry="0.7"/>
			<ellipse class="st59" cx="347" cy="333" rx="1.1" ry="0.7"/>
			<path class="st40" d="M351.1,335.3c-0.4,0.3-1.2,0.3-1.6,0s-0.4-0.7,0-0.9c0.4-0.3,1.2-0.3,1.6,0
				C351.5,334.7,351.5,335.1,351.1,335.3z"/>
			<path class="st40" d="M354.4,337.2c-0.4,0.3-1.2,0.3-1.6,0s-0.4-0.7,0-0.9c0.4-0.3,1.2-0.3,1.6,0
				C354.8,336.5,354.8,336.9,354.4,337.2z"/>
			<path class="st40" d="M357.7,339.1c-0.4,0.3-1.2,0.3-1.6,0s-0.4-0.7,0-0.9c0.4-0.3,1.2-0.3,1.6,0
				C358.1,338.4,358.1,338.8,357.7,339.1z"/>
			<path class="st40" d="M341.8,333.6c-0.4,0.3-1.2,0.3-1.6,0s-0.4-0.7,0-0.9c0.4-0.3,1.2-0.3,1.6,0
				C342.2,333,342.2,333.4,341.8,333.6z"/>
			<path class="st40" d="M345.1,335.5c-0.4,0.3-1.2,0.3-1.6,0s-0.4-0.7,0-0.9c0.4-0.3,1.2-0.3,1.6,0
				C345.5,334.8,345.5,335.2,345.1,335.5z"/>
			<path class="st40" d="M348.4,337.4c-0.4,0.3-1.2,0.3-1.6,0s-0.4-0.7,0-0.9c0.4-0.3,1.2-0.3,1.6,0
				C348.8,336.7,348.8,337.1,348.4,337.4z"/>
			<path class="st59" d="M351.7,339.3c-0.4,0.3-1.2,0.3-1.6,0s-0.4-0.7,0-0.9c0.4-0.3,1.2-0.3,1.6,0
				C352.1,338.6,352.1,339,351.7,339.3z"/>
			<path class="st59" d="M355,341.1c-0.4,0.3-1.2,0.3-1.6,0s-0.4-0.7,0-0.9c0.4-0.3,1.2-0.3,1.6,0S355.4,340.9,355,341.1z"/>
			<path class="st59" d="M339.1,335.7c-0.4,0.3-1.2,0.3-1.6,0s-0.4-0.7,0-0.9c0.4-0.3,1.2-0.3,1.6,0
				C339.5,335,339.5,335.4,339.1,335.7z"/>
			<path class="st40" d="M342.4,337.6c-0.4,0.3-1.2,0.3-1.6,0s-0.4-0.7,0-0.9c0.4-0.3,1.2-0.3,1.6,0
				C342.8,336.9,342.8,337.3,342.4,337.6z"/>
			<ellipse class="st59" cx="344.9" cy="339" rx="1.1" ry="0.7"/>
			<path class="st40" d="M349,341.3c-0.4,0.3-1.2,0.3-1.6,0s-0.4-0.7,0-0.9c0.4-0.3,1.2-0.3,1.6,0
				C349.4,340.7,349.4,341.1,349,341.3z"/>
			<path class="st40" d="M352.3,343.2c-0.4,0.3-1.2,0.3-1.6,0s-0.4-0.7,0-0.9c0.4-0.3,1.2-0.3,1.6,0
				C352.7,342.5,352.7,342.9,352.3,343.2z"/>
			<path class="st40" d="M336.4,337.7c-0.4,0.3-1.2,0.3-1.6,0s-0.4-0.7,0-0.9c0.4-0.3,1.2-0.3,1.6,0S336.8,337.5,336.4,337.7z"/>
			<path class="st40" d="M339.7,339.6c-0.4,0.3-1.2,0.3-1.6,0s-0.4-0.7,0-0.9c0.4-0.3,1.2-0.3,1.6,0S340.1,339.4,339.7,339.6z"/>
			<path class="st40" d="M343,341.5c-0.4,0.3-1.2,0.3-1.6,0s-0.4-0.7,0-0.9c0.4-0.3,1.2-0.3,1.6,0
				C343.4,340.8,343.4,341.2,343,341.5z"/>
			<path class="st40" d="M346.3,343.4c-0.4,0.3-1.2,0.3-1.6,0s-0.4-0.7,0-0.9c0.4-0.3,1.2-0.3,1.6,0
				C346.7,342.7,346.7,343.1,346.3,343.4z"/>
			<path class="st59" d="M349.6,345.3c-0.4,0.3-1.2,0.3-1.6,0s-0.4-0.7,0-0.9c0.4-0.3,1.2-0.3,1.6,0C350,344.6,350,345,349.6,345.3z
				"/>
			<ellipse class="st59" cx="332.9" cy="339.3" rx="1.1" ry="0.7"/>
			<ellipse class="st40" cx="336.2" cy="341.2" rx="1.1" ry="0.7"/>
			<path class="st59" d="M340.3,343.6c-0.4,0.3-1.2,0.3-1.6,0s-0.4-0.7,0-0.9c0.4-0.3,1.2-0.3,1.6,0
				C340.7,342.9,340.7,343.3,340.3,343.6z"/>
			<ellipse class="st40" cx="342.7" cy="345" rx="1.1" ry="0.7"/>
			<path class="st59" d="M346.8,347.3c-0.4,0.3-1.2,0.3-1.6,0s-0.4-0.7,0-0.9c0.4-0.3,1.2-0.3,1.6,0
				C347.3,346.7,347.3,347.1,346.8,347.3z"/>
			<g>
				<line class="st60" x1="305.1" y1="329" x2="321.8" y2="338.8"/>
				<line class="st60" x1="303.9" y1="330" x2="320.6" y2="339.7"/>
				<line class="st60" x1="302.7" y1="330.9" x2="319.4" y2="340.7"/>
			</g>
			<g>
				<path class="st45" d="M296.6,330c0,0,6.2,6.6,6.6,13.2l-1.2,2.6l-2.5-1.8c0,0-1.8-8.6-5-11.2L296.6,330z"/>
				<path class="st46" d="M282,407.4c0,0-0.4,4.1,1.6,3.9c2.3-0.2,9.6-5.1,7.9-6.6c-1.6-1.5-7.6,1.2-7.6,1.2L282,407.4z"/>
				<path class="st46" d="M294.8,413.5c0,0-0.4,4.1,1.6,3.9c2.3-0.2,9.6-5.1,7.9-6.6c-1.6-1.5-7.6,1.2-7.6,1.2L294.8,413.5z"/>
				<rect x="288.7" y="311.5" class="st10" width="4.3" height="6.1"/>
				<path class="st45" d="M297.5,344.1c0,0,6.9,15.7,1.7,69.7c0,0.3-0.2,0.5-0.4,0.7c-0.9,0.5-3.2,1.4-4.4-1.6
					c0-0.1-0.1-0.2-0.1-0.3l-4.5-56.6c0-0.9-0.5-1-0.6,0l-2.8,51.7c0,0.4-0.3,0.7-0.6,0.9c-1.2,0.5-3.9,1-4.3-2.8
					c0,0-4.7-55.9,0.8-63.5L297.5,344.1z"/>
				<path class="st46" d="M282.4,340.6c0.1,0.2,0.3,0.5,0.5,0.6c1.6,1.6,5.8,4.5,14.2,1.5c0.2-0.1,0.4-0.2,0.5-0.3v1.7
					c-0.1,0.1-0.3,0.2-0.5,0.3c-8.4,3-12.7,0.1-14.2-1.5c-0.2-0.2-0.3-0.4-0.5-0.6V340.6z"/>
				<path class="st49" d="M293,315.5l-4.3-1l-6.8-0.9c-1.7-0.2-2.8,2.2-3,4.7c-0.2,4.9,3,21.4,3,21.4c0,0.7,0.3,1.3,0.8,1.8
					c1.6,1.6,5.8,4.5,14.2,1.5c0.5-0.2,0.9-0.7,1-1.2l3.1-19.6c0.2-1-0.3-2-1.1-2.6L293,315.5z"/>
				<path class="st10" d="M298.3,303.9c0,0-0.5,5.9-2.9,8.9s-7.1-2-7.8-3.4c-0.7-1.4-1.8-10.5,5.4-10.5
					C297.7,298.9,298.5,301.8,298.3,303.9z"/>
				<path class="st45" d="M291.3,307.5c0,0,2.4-1.7,3.4-4.7c0,0,0.5-0.3,3.5,2.2c0,0,3.4,0,1.8-3.5s-8-8-11.1-4.5c0,0-5.9-1-4.8,6.7
					c1.5,10.1,6.2,8.4,7.4,6.1C292.6,307.6,291.3,307.5,291.3,307.5z"/>
				<path class="st10" d="M292.8,306.4c0,0-1-1.9-1.8-0.8c-0.8,1.2,0.2,3.5,1.9,3.8L292.8,306.4z"/>
				<path class="st10" d="M328.2,340.8c0.1,0,0.6,0.9,1.1,1.6c0.1,0.2-0.1,0.4-0.3,0.3l-1.2-0.7c0,0,0.1,2-2.8,0.2l-0.1-1.9
					L328.2,340.8z"/>
				<path class="st48" d="M325.6,340.2c0,0-17.8-10.1-19-4.2s18.4,6.4,18.4,6.4S325.8,341.8,325.6,340.2z"/>
				<path class="st48" d="M300.1,319.7c0,0,2.7,1.3,6.4,6.6c5.1,7.2,7.4,11.5,2.7,13.1c-1.2,0.4-9.4-8.2-9.4-8.2
					S296.4,324.1,300.1,319.7z"/>
				<path class="st48" d="M293.8,316l-0.9-1.5c0,0-1.5-0.9-4.3-1l-1,0.9C287.7,314.4,287.9,315.5,293.8,316z"/>
			</g>
		</g>
		
			<linearGradient id="SVGID_36_" gradientUnits="userSpaceOnUse" x1="-51.4122" y1="-219.493" x2="-51.4122" y2="-128.7907" gradientTransform="matrix(-0.999 -4.390000e-02 -4.390000e-02 0.999 442.8049 403.6886)">
			<stop  offset="1.860120e-03" style="stop-color:#AC24B9"/>
			<stop  offset="1" style="stop-color:#2E2142"/>
		</linearGradient>
		<path class="st61" d="M486.7,207.5c3.5,9.6,16.7,21.9,27.4,17.3c5.3-2.3,8.2-9.8,4.7-14.3c-2.5-3.2-7.1-4.1-10.4-6.5
			c-2.9-2.2-4.7-5.7-6.9-8.6c-2.2-2.9-5.5-5.6-9.2-5.2c-7.7,0.9-7.7,11.4-5.9,16.9C486.5,207.1,486.6,207.3,486.7,207.5z"/>
	</g>
</g>
<g id="Designed_by_Freepik">
</g>
</svg>
